# xmcd CD database file
#
# Track frame offsets:
#	150
#	22776
#	54288
#	73452
#	91964
#	123364
#	142628
#	162478
#	190004
#	217422
#
# Disc length: 3196 seconds
#
# Revision: 1
# Processed by: cddbd v1.5.2PL0 Copyright (c) Steve Scherf et al.
# Submitted via: CDex 1.70beta2
#
DISCID=890c7a0a
DTITLE=Smart Metal Hornets and Dix - Fusionierter Zwiefacher
DYEAR=2007
DGENRE=Jazz
TTITLE0=Schlossberg Forever
TTITLE1=Frau Schramek
TTITLE2=Schöckel-Boogie
TTITLE3=Butterfly-Samba
TTITLE4=Fusionierter Zwiefacher
TTITLE5=Caracho
TTITLE6=Mushroom-Shuffle
TTITLE7=Formic Acid
TTITLE8=Souly Moovie
TTITLE9=Locomotive Breath
EXTD=YEAR: 2007
EXTT0=
EXTT1=
EXTT2=
EXTT3=
EXTT4=
EXTT5=
EXTT6=
EXTT7=
EXTT8=
EXTT9=
PLAYORDER=
